<mxfile host="65bd71144e">
    <diagram id="bkqUZhZ1F6wROM61gW11" name="Seite-1">
        <mxGraphModel dx="738" dy="401" grid="1" gridSize="10" guides="1" tooltips="1" connect="1" arrows="1" fold="1" page="1" pageScale="1" pageWidth="1500" pageHeight="1000" math="0" shadow="0">
            <root>
                <mxCell id="0"/>
                <mxCell id="1" parent="0"/>
                <mxCell id="FanxpAUq0nOWs9PZvAO2-10" style="rounded=0;orthogonalLoop=1;jettySize=auto;html=1;exitX=0.25;exitY=1;exitDx=0;exitDy=0;entryX=1;entryY=0;entryDx=0;entryDy=0;endArrow=none;endFill=0;fontSize=16;" parent="1" target="FanxpAUq0nOWs9PZvAO2-2" edge="1">
                    <mxGeometry relative="1" as="geometry">
                        <mxPoint x="520" y="120" as="sourcePoint"/>
                    </mxGeometry>
                </mxCell>
                <mxCell id="FanxpAUq0nOWs9PZvAO2-11" style="edgeStyle=none;rounded=0;orthogonalLoop=1;jettySize=auto;html=1;exitX=0.75;exitY=1;exitDx=0;exitDy=0;entryX=0;entryY=0;entryDx=0;entryDy=0;endArrow=none;endFill=0;fontSize=16;" parent="1" target="FanxpAUq0nOWs9PZvAO2-3" edge="1">
                    <mxGeometry relative="1" as="geometry">
                        <mxPoint x="600" y="120" as="sourcePoint"/>
                    </mxGeometry>
                </mxCell>
                <mxCell id="FanxpAUq0nOWs9PZvAO2-13" style="edgeStyle=none;rounded=0;orthogonalLoop=1;jettySize=auto;html=1;exitX=0.5;exitY=1;exitDx=0;exitDy=0;entryX=0.5;entryY=0;entryDx=0;entryDy=0;endArrow=none;endFill=0;fontSize=16;" parent="1" source="FanxpAUq0nOWs9PZvAO2-2" target="FanxpAUq0nOWs9PZvAO2-4" edge="1">
                    <mxGeometry relative="1" as="geometry"/>
                </mxCell>
                <mxCell id="FanxpAUq0nOWs9PZvAO2-2" value="&amp;lt;person&amp;gt;" style="ellipse;whiteSpace=wrap;html=1;fontSize=16;" parent="1" vertex="1">
                    <mxGeometry x="360" y="160" width="120" height="80" as="geometry"/>
                </mxCell>
                <mxCell id="FanxpAUq0nOWs9PZvAO2-12" style="edgeStyle=none;rounded=0;orthogonalLoop=1;jettySize=auto;html=1;exitX=0.5;exitY=1;exitDx=0;exitDy=0;entryX=0.5;entryY=0;entryDx=0;entryDy=0;endArrow=none;endFill=0;fontSize=16;" parent="1" source="FanxpAUq0nOWs9PZvAO2-3" target="FanxpAUq0nOWs9PZvAO2-5" edge="1">
                    <mxGeometry relative="1" as="geometry"/>
                </mxCell>
                <mxCell id="FanxpAUq0nOWs9PZvAO2-3" value="&amp;lt;person&amp;gt;" style="ellipse;whiteSpace=wrap;html=1;fontSize=16;" parent="1" vertex="1">
                    <mxGeometry x="650" y="160" width="120" height="80" as="geometry"/>
                </mxCell>
                <mxCell id="FanxpAUq0nOWs9PZvAO2-4" value="&amp;lt;fullname&amp;gt;" style="ellipse;whiteSpace=wrap;html=1;fontSize=16;" parent="1" vertex="1">
                    <mxGeometry x="360" y="280" width="120" height="80" as="geometry"/>
                </mxCell>
                <mxCell id="FanxpAUq0nOWs9PZvAO2-5" value="&amp;lt;fullname&amp;gt;" style="ellipse;whiteSpace=wrap;html=1;fontSize=16;" parent="1" vertex="1">
                    <mxGeometry x="650" y="280" width="120" height="80" as="geometry"/>
                </mxCell>
                <mxCell id="FanxpAUq0nOWs9PZvAO2-14" style="edgeStyle=none;rounded=0;orthogonalLoop=1;jettySize=auto;html=1;exitX=1;exitY=0;exitDx=0;exitDy=0;entryX=0.5;entryY=1;entryDx=0;entryDy=0;endArrow=none;endFill=0;fontSize=16;" parent="1" source="FanxpAUq0nOWs9PZvAO2-6" target="FanxpAUq0nOWs9PZvAO2-4" edge="1">
                    <mxGeometry relative="1" as="geometry"/>
                </mxCell>
                <mxCell id="FanxpAUq0nOWs9PZvAO2-25" style="edgeStyle=none;rounded=0;orthogonalLoop=1;jettySize=auto;html=1;exitX=0.5;exitY=1;exitDx=0;exitDy=0;entryX=0.5;entryY=0;entryDx=0;entryDy=0;endArrow=none;endFill=0;fontSize=16;" parent="1" source="FanxpAUq0nOWs9PZvAO2-6" target="FanxpAUq0nOWs9PZvAO2-20" edge="1">
                    <mxGeometry relative="1" as="geometry"/>
                </mxCell>
                <mxCell id="FanxpAUq0nOWs9PZvAO2-6" value="&amp;lt;firstname&amp;gt;" style="ellipse;whiteSpace=wrap;html=1;fontSize=16;" parent="1" vertex="1">
                    <mxGeometry x="280" y="400" width="120" height="80" as="geometry"/>
                </mxCell>
                <mxCell id="FanxpAUq0nOWs9PZvAO2-15" style="edgeStyle=none;rounded=0;orthogonalLoop=1;jettySize=auto;html=1;exitX=0;exitY=0;exitDx=0;exitDy=0;entryX=0.5;entryY=1;entryDx=0;entryDy=0;endArrow=none;endFill=0;fontSize=16;" parent="1" source="FanxpAUq0nOWs9PZvAO2-7" target="FanxpAUq0nOWs9PZvAO2-4" edge="1">
                    <mxGeometry relative="1" as="geometry"/>
                </mxCell>
                <mxCell id="FanxpAUq0nOWs9PZvAO2-24" style="edgeStyle=none;rounded=0;orthogonalLoop=1;jettySize=auto;html=1;exitX=0.5;exitY=1;exitDx=0;exitDy=0;entryX=0.5;entryY=0;entryDx=0;entryDy=0;endArrow=none;endFill=0;fontSize=16;" parent="1" source="FanxpAUq0nOWs9PZvAO2-7" target="FanxpAUq0nOWs9PZvAO2-21" edge="1">
                    <mxGeometry relative="1" as="geometry"/>
                </mxCell>
                <mxCell id="FanxpAUq0nOWs9PZvAO2-7" value="&amp;lt;lastname&amp;gt;" style="ellipse;whiteSpace=wrap;html=1;fontSize=16;" parent="1" vertex="1">
                    <mxGeometry x="440" y="400" width="120" height="80" as="geometry"/>
                </mxCell>
                <mxCell id="FanxpAUq0nOWs9PZvAO2-16" style="edgeStyle=none;rounded=0;orthogonalLoop=1;jettySize=auto;html=1;exitX=1;exitY=0;exitDx=0;exitDy=0;entryX=0.5;entryY=1;entryDx=0;entryDy=0;endArrow=none;endFill=0;fontSize=16;" parent="1" source="FanxpAUq0nOWs9PZvAO2-8" target="FanxpAUq0nOWs9PZvAO2-5" edge="1">
                    <mxGeometry relative="1" as="geometry"/>
                </mxCell>
                <mxCell id="FanxpAUq0nOWs9PZvAO2-26" style="edgeStyle=none;rounded=0;orthogonalLoop=1;jettySize=auto;html=1;exitX=0.5;exitY=1;exitDx=0;exitDy=0;entryX=0.5;entryY=0;entryDx=0;entryDy=0;endArrow=none;endFill=0;fontSize=16;" parent="1" source="FanxpAUq0nOWs9PZvAO2-8" target="FanxpAUq0nOWs9PZvAO2-22" edge="1">
                    <mxGeometry relative="1" as="geometry"/>
                </mxCell>
                <mxCell id="FanxpAUq0nOWs9PZvAO2-8" value="&amp;lt;firstname&amp;gt;" style="ellipse;whiteSpace=wrap;html=1;fontSize=16;" parent="1" vertex="1">
                    <mxGeometry x="570" y="400" width="120" height="80" as="geometry"/>
                </mxCell>
                <mxCell id="FanxpAUq0nOWs9PZvAO2-17" style="edgeStyle=none;rounded=0;orthogonalLoop=1;jettySize=auto;html=1;exitX=0;exitY=0;exitDx=0;exitDy=0;entryX=0.5;entryY=1;entryDx=0;entryDy=0;endArrow=none;endFill=0;fontSize=16;" parent="1" source="FanxpAUq0nOWs9PZvAO2-9" target="FanxpAUq0nOWs9PZvAO2-5" edge="1">
                    <mxGeometry relative="1" as="geometry"/>
                </mxCell>
                <mxCell id="FanxpAUq0nOWs9PZvAO2-27" style="edgeStyle=none;rounded=0;orthogonalLoop=1;jettySize=auto;html=1;exitX=0.5;exitY=1;exitDx=0;exitDy=0;entryX=0.5;entryY=0;entryDx=0;entryDy=0;endArrow=none;endFill=0;fontSize=16;" parent="1" source="FanxpAUq0nOWs9PZvAO2-9" target="FanxpAUq0nOWs9PZvAO2-23" edge="1">
                    <mxGeometry relative="1" as="geometry"/>
                </mxCell>
                <mxCell id="FanxpAUq0nOWs9PZvAO2-9" value="&amp;lt;lastname&amp;gt;" style="ellipse;whiteSpace=wrap;html=1;fontSize=16;" parent="1" vertex="1">
                    <mxGeometry x="730" y="400" width="120" height="80" as="geometry"/>
                </mxCell>
                <mxCell id="FanxpAUq0nOWs9PZvAO2-19" value="Root&lt;br style=&quot;font-size: 16px;&quot;&gt;&amp;lt;people&amp;gt;" style="rhombus;whiteSpace=wrap;html=1;rounded=0;fontSize=16;" parent="1" vertex="1">
                    <mxGeometry x="500" y="40" width="120" height="120" as="geometry"/>
                </mxCell>
                <mxCell id="FanxpAUq0nOWs9PZvAO2-20" value="Josip" style="shape=parallelogram;perimeter=parallelogramPerimeter;whiteSpace=wrap;html=1;fixedSize=1;rounded=0;fontSize=16;" parent="1" vertex="1">
                    <mxGeometry x="280" y="520" width="120" height="60" as="geometry"/>
                </mxCell>
                <mxCell id="FanxpAUq0nOWs9PZvAO2-21" value="Tunjic" style="shape=parallelogram;perimeter=parallelogramPerimeter;whiteSpace=wrap;html=1;fixedSize=1;rounded=0;fontSize=16;" parent="1" vertex="1">
                    <mxGeometry x="440" y="520" width="120" height="60" as="geometry"/>
                </mxCell>
                <mxCell id="FanxpAUq0nOWs9PZvAO2-22" value="Michael" style="shape=parallelogram;perimeter=parallelogramPerimeter;whiteSpace=wrap;html=1;fixedSize=1;rounded=0;fontSize=16;" parent="1" vertex="1">
                    <mxGeometry x="570" y="520" width="120" height="60" as="geometry"/>
                </mxCell>
                <mxCell id="FanxpAUq0nOWs9PZvAO2-23" value="FÃ¼by" style="shape=parallelogram;perimeter=parallelogramPerimeter;whiteSpace=wrap;html=1;fixedSize=1;rounded=0;fontSize=16;" parent="1" vertex="1">
                    <mxGeometry x="730" y="520" width="120" height="60" as="geometry"/>
                </mxCell>
                <mxCell id="FanxpAUq0nOWs9PZvAO2-28" value="id=&quot;1&quot;" style="rounded=1;whiteSpace=wrap;html=1;fontSize=16;" parent="1" vertex="1">
                    <mxGeometry x="430" y="210" width="90" height="30" as="geometry"/>
                </mxCell>
                <mxCell id="FanxpAUq0nOWs9PZvAO2-30" value="id=&quot;2&quot;" style="rounded=1;whiteSpace=wrap;html=1;fontSize=16;" parent="1" vertex="1">
                    <mxGeometry x="730" y="210" width="90" height="30" as="geometry"/>
                </mxCell>
            </root>
        </mxGraphModel>
    </diagram>
</mxfile>